Simulation
nRows=15
nColumns=15
endheader
time  TH_x TH_y TH_z SC_y  SC_z  SC_x  AC_y  AC_z  AC_x  GH_y  GH_z  GH_yy  EL_x  PS_y
0.0  0.000000  0.000000  0.000000  -30.173215303013666  0.4900273259436554  -6.753000996490458  53.09347580256316  11.488481837566253  -2.456389840202944  27.24266515425597  2.2976275611810024  1.9120291188946346  22.89751684974918  0.000000
0.03099999999999998  0.000000  0.000000  0.000000  -30.146398845721844  0.3636896626063566  -5.646089084040998  53.029056422228  10.738177066515716  -3.3727834530973726  27.275151877284628  2.371448184816289  1.96285014174064  22.809493205615837  0.000000
0.06199999999999996  0.000000  0.000000  0.000000  -30.097175791075156  0.2299757747493066  -4.585759478529925  52.994302687394494  10.000580371999405  -4.243149046985051  27.299454794665753  2.4560674673113048  2.047660535488933  22.731139369043916  0.000000
0.09299999999999994  0.000000  0.000000  0.000000  -30.048602410502202  0.09335970230064618  -3.5856575951863108  52.97830054106332  9.290763187638737  -5.058419332059033  27.28944088744987  2.5741057002398433  2.1635156479000126  22.64655949969784  0.000000
0.12399999999999992  0.000000  0.000000  0.000000  -30.005919900777677  -0.03862980958871201  -2.654227526969049  52.973388933013986  8.618698425184368  -5.812216069530058  27.22464689976726  2.7448573275354424  2.3081045303738565  22.545998687033745  0.000000
0.1549999999999999  0.000000  0.000000  0.000000  -29.97981356158783  -0.1619100348206024  -1.7968186444039262  52.97460135705111  7.99260529974138  -6.5010560214451605  27.082383123627114  2.988654078975757  2.4805866637635545  22.42291520796055  0.000000
0.1859999999999999  0.000000  0.000000  0.000000  -29.972801522314057  -0.2723046787893342  -1.0153052254890416  52.97811332136567  7.417803426270298  -7.123032598972463  26.844002466124525  3.319571042481313  2.679492369280015  22.275661552198663  0.000000
0.21699999999999986  0.000000  0.000000  0.000000  -29.986886310671842  -0.367030083921609  -0.3088526005912223  52.98346733696859  6.897297481696002  -7.677649034545112  26.496359267881182  3.747158894667397  2.9025099496713898  22.107682215091245  0.000000
0.24799999999999983  0.000000  0.000000  0.000000  -30.021137967816678  -0.4444384148530896  0.32524140137119834  52.99122302360657  6.432325175970902  -8.165162419774918  26.030434344736644  4.274675952762944  3.14752544649892  21.92600090417285  0.000000
0.2789999999999998  0.000000  0.000000  0.000000  -30.073111578378654  -0.504193978759464  0.891063017018477  53.00463761716313  6.022517218990391  -8.58628858214686  25.44331992049031  4.900745887812344  3.412025914136328  21.74078891835654  0.000000
0.3099999999999998  0.000000  0.000000  0.000000  -30.139743474599367  -0.547394940361863  1.3931311974450529  53.0282725618691  5.666474424284648  -8.941632563937446  24.735378053342437  5.620671305564522  3.6941259853092894  21.564348463346214  0.000000
0.34099999999999975  0.000000  0.000000  0.000000  -30.218214151703275  -0.5765628241922933  1.8357805717611093  53.068415954498796  5.361834580871956  -9.231515285896792  23.909836996381447  6.428892183131404  3.9925370509277296  21.409659300792303  0.000000
0.3719999999999998  0.000000  0.000000  0.000000  -30.30666288438059  -0.5952483669879975  2.222559154229663  53.131667680448835  5.105708028944554  -9.456037854973191  22.972017554906415  7.320655460301068  4.3064538580245495  21.289156041541368  0.000000
0.40299999999999975  0.000000  0.000000  0.000000  -30.403414697906168  -0.6069721131997008  2.555962327411837  53.22365249102993  4.895070477753089  -9.615489606041221  21.930851875381038  8.293065913762664  4.635038128459575  21.2122743604899  0.000000
0.4339999999999997  0.000000  0.000000  0.000000  -30.50587518968087  -0.6139052640889581  2.8379676257872988  53.347213686530516  4.727385483657571  -9.71099004136025  20.80156641589218  9.345421329712174  4.976769221326843  21.1836456824271  0.000000
